ffmpeg version 4.4.2-0ubuntu0.22.04.1+esm1 Copyright (c) 2000-2021 the FFmpeg developers
  built with gcc 11 (Ubuntu 11.3.0-1ubuntu1~22.04)
  configuration: --prefix=/usr --extra-version=0ubuntu0.22.04.1+esm1 --toolchain=hardened --libdir=/usr/lib/x86_64-linux-gnu --incdir=/usr/include/x86_64-linux-gnu --arch=amd64 --enable-gpl --disable-stripping --enable-gnutls --enable-ladspa --enable-libaom --enable-libass --enable-libbluray --enable-libbs2b --enable-libcaca --enable-libcdio --enable-libcodec2 --enable-libdav1d --enable-libflite --enable-libfontconfig --enable-libfreetype --enable-libfribidi --enable-libgme --enable-libgsm --enable-libjack --enable-libmp3lame --enable-libmysofa --enable-libopenjpeg --enable-libopenmpt --enable-libopus --enable-libpulse --enable-librabbitmq --enable-librubberband --enable-libshine --enable-libsnappy --enable-libsoxr --enable-libspeex --enable-libsrt --enable-libssh --enable-libtheora --enable-libtwolame --enable-libvidstab --enable-libvorbis --enable-libvpx --enable-libwebp --enable-libx265 --enable-libxml2 --enable-libxvid --enable-libzimg --enable-libzmq --enable-libzvbi --enable-lv2 --enable-omx --enable-openal --enable-opencl --enable-opengl --enable-sdl2 --enable-pocketsphinx --enable-librsvg --enable-libmfx --enable-libdc1394 --enable-libdrm --enable-libiec61883 --enable-chromaprint --enable-frei0r --enable-libx264 --enable-shared
  libavutil      56. 70.100 / 56. 70.100
  libavcodec     58.134.100 / 58.134.100
  libavformat    58. 76.100 / 58. 76.100
  libavdevice    58. 13.100 / 58. 13.100
  libavfilter     7.110.100 /  7.110.100
  libswscale      5.  9.100 /  5.  9.100
  libswresample   3.  9.100 /  3.  9.100
  libpostproc    55.  9.100 / 55.  9.100
Input #0, mov,mp4,m4a,3gp,3g2,mj2, from 'imports/rl7fS4IC4p4.mp4':
  Metadata:
    major_brand     : isom
    minor_version   : 512
    compatible_brands: isomiso2mp41
    encoder         : Lavf58.76.100
  Duration: 00:03:56.80, start: 0.000000, bitrate: 30 kb/s
  Stream #0:0(und): Audio: aac (HE-AAC) (mp4a / 0x6134706D), 44100 Hz, stereo, fltp, 30 kb/s (default)
    Metadata:
      handler_name    : ISO Media file produced by Google Inc.
      vendor_id       : [0][0][0][0]
Stream mapping:
  Stream #0:0 -> #0:0 (aac (native) -> pcm_s16le (native))
Press [q] to stop, [?] for help
Output #0, s16le, to 'pipe:1':
  Metadata:
    major_brand     : isom
    minor_version   : 512
    compatible_brands: isomiso2mp41
    encoder         : Lavf58.76.100
  Stream #0:0(und): Audio: pcm_s16le, 48000 Hz, stereo, s16, 1536 kb/s (default)
    Metadata:
      handler_name    : ISO Media file produced by Google Inc.
      vendor_id       : [0][0][0][0]
      encoder         : Lavc58.134.100 pcm_s16le
size=       9kB time=00:00:00.00 bitrate=N/A speed=   0x    size=     183kB time=00:00:00.92 bitrate=1612.9kbits/s speed=1.85x    size=     287kB time=00:00:01.48 bitrate=1584.0kbits/s speed=1.48x    size=     374kB time=00:00:01.95 bitrate=1572.6kbits/s speed=1.28x    size=     479kB time=00:00:02.50 bitrate=1564.4kbits/s speed=1.24x    size=     575kB time=00:00:03.01 bitrate=1559.6kbits/s speed=1.19x    size=     670kB time=00:00:03.52 bitrate=1556.2kbits/s speed=1.15x    size=     766kB time=00:00:04.03 bitrate=1553.7kbits/s speed=1.13x    size=     862kB time=00:00:04.55 bitrate=1551.7kbits/s speed=1.11x    size=     966kB time=00:00:05.10 bitrate=1550.0kbits/s speed=1.09x    size=    1080kB time=00:00:05.71 bitrate=1548.5kbits/s speed= 1.1x    size=    1167kB time=00:00:06.17 bitrate=1547.6kbits/s speed=1.08x    size=    1263kB time=00:00:06.68 bitrate=1546.7kbits/s speed=1.07x    size=    1358kB time=00:00:07.19 bitrate=1545.9kbits/s speed=1.07x    size=    1454kB time=00:00:07.70 bitrate=1545.3kbits/s speed=1.06x    size=    1559kB time=00:00:08.26 bitrate=1544.6kbits/s speed=1.05x    size=    1663kB time=00:00:08.82 bitrate=1544.1kbits/s speed=1.06x    size=    1759kB time=00:00:09.33 bitrate=1543.6kbits/s speed=1.05x    size=    1855kB time=00:00:09.84 bitrate=1543.2kbits/s speed=1.05x    size=    1950kB time=00:00:10.35 bitrate=1542.9kbits/s speed=1.05x    size=    2046kB time=00:00:10.86 bitrate=1542.6kbits/s speed=1.04x    size=    2142kB time=00:00:11.37 bitrate=1542.3kbits/s speed=1.04x    size=    2238kB time=00:00:11.88 bitrate=1542.0kbits/s speed=1.04x    size=    2351kB time=00:00:12.49 bitrate=1541.7kbits/s speed=1.04x    size=    2447kB time=00:00:13.00 bitrate=1541.5kbits/s speed=1.04x    size=    2543kB time=00:00:13.51 bitrate=1541.3kbits/s speed=1.04x    size=    2638kB time=00:00:14.02 bitrate=1541.1kbits/s speed=1.04x    size=    2734kB time=00:00:14.53 bitrate=1540.9kbits/s speed=1.03x    size=    2830kB time=00:00:15.04 bitrate=1540.7kbits/s speed=1.03x    size=    2934kB time=00:00:15.60 bitrate=1540.6kbits/s speed=1.03x    size=    3056kB time=00:00:16.25 bitrate=1540.4kbits/s speed=1.03x    size=    3143kB time=00:00:16.71 bitrate=1540.3kbits/s speed=1.03x    size=    3248kB time=00:00:17.27 bitrate=1540.1kbits/s speed=1.03x    size=    3335kB time=00:00:17.73 bitrate=1540.0kbits/s speed=1.03x    size=    3439kB time=00:00:18.29 bitrate=1539.9kbits/s speed=1.03x    size=    3544kB time=00:00:18.85 bitrate=1539.8kbits/s speed=1.02x    size=    3666kB time=00:00:19.50 bitrate=1539.7kbits/s speed=1.03x    size=    3770kB time=00:00:20.06 bitrate=1539.6kbits/s speed=1.02x    size=    3866kB time=00:00:20.57 bitrate=1539.5kbits/s speed=1.02x    size=    3962kB time=00:00:21.08 bitrate=1539.4kbits/s speed=1.02x    size=    4075kB time=00:00:21.68 bitrate=1539.3kbits/s speed=1.02x    size=    4171kB time=00:00:22.19 bitrate=1539.2kbits/s speed=1.02x    size=    4267kB time=00:00:22.70 bitrate=1539.1kbits/s speed=1.02x    size=    4371kB time=00:00:23.26 bitrate=1539.1kbits/s speed=1.02x    size=    4458kB time=00:00:23.73 bitrate=1539.0kbits/s speed=1.02x    size=    4571kB time=00:00:24.33 bitrate=1538.9kbits/s speed=1.02x    size=    4685kB time=00:00:24.93 bitrate=1538.9kbits/s speed=1.02x    size=    4789kB time=00:00:25.49 bitrate=1538.8kbits/s speed=1.02x    size=    4876kB time=00:00:25.95 bitrate=1538.7kbits/s speed=1.02x    size=    4989kB time=00:00:26.56 bitrate=1538.7kbits/s speed=1.02x    size=    5103kB time=00:00:27.16 bitrate=1538.6kbits/s speed=1.02x    size=    5216kB time=00:00:27.77 bitrate=1538.6kbits/s speed=1.02x    size=    5303kB time=00:00:28.23 bitrate=1538.5kbits/s speed=1.02x    size=    5407kB time=00:00:28.79 bitrate=1538.5kbits/s speed=1.02x    size=    5494kB time=00:00:29.25 bitrate=1538.4kbits/s speed=1.02x    size=    5599kB time=00:00:29.81 bitrate=1538.4kbits/s speed=1.02x    size=    5695kB time=00:00:30.32 bitrate=1538.4kbits/s speed=1.02x    size=    5790kB time=00:00:30.83 bitrate=1538.3kbits/s speed=1.02x    size=    5886kB time=00:00:31.34 bitrate=1538.3kbits/s speed=1.02x    size=    5982kB time=00:00:31.85 bitrate=1538.2kbits/s speed=1.02x    size=    6078kB time=00:00:32.36 bitrate=1538.2kbits/s speed=1.01x    size=    6174kB time=00:00:32.87 bitrate=1538.2kbits/s speed=1.01x    size=    6269kB time=00:00:33.38 bitrate=1538.1kbits/s speed=1.01x    size=    6365kB time=00:00:33.90 bitrate=1538.1kbits/s speed=1.01x    size=    6461kB time=00:00:34.41 bitrate=1538.1kbits/s speed=1.01x    size=    6557kB time=00:00:34.92 bitrate=1538.0kbits/s speed=1.01x    size=    6670kB time=00:00:35.52 bitrate=1538.0kbits/s speed=1.01x    size=    6783kB time=00:00:36.12 bitrate=1538.0kbits/s speed=1.01x    size=    6879kB time=00:00:36.64 bitrate=1537.9kbits/s speed=1.01x    size=    6975kB time=00:00:37.15 bitrate=1537.9kbits/s speed=1.01x    size=    7070kB time=00:00:37.66 bitrate=1537.9kbits/s speed=1.01x    size=    7166kB time=00:00:38.17 bitrate=1537.9kbits/s speed=1.01x    size=    7262kB time=00:00:38.68 bitrate=1537.8kbits/s speed=1.01x    size=    7358kB time=00:00:39.19 bitrate=1537.8kbits/s speed=1.01x    size=    7454kB time=00:00:39.70 bitrate=1537.8kbits/s speed=1.01x    size=    7549kB time=00:00:40.21 bitrate=1537.8kbits/s speed=1.01x    size=    7645kB time=00:00:40.72 bitrate=1537.8kbits/s speed=1.01x    size=    7741kB time=00:00:41.23 bitrate=1537.7kbits/s speed=1.01x    size=    7837kB time=00:00:41.74 bitrate=1537.7kbits/s speed=1.01x    size=    7932kB time=00:00:42.25 bitrate=1537.7kbits/s speed=1.01x    size=    8028kB time=00:00:42.77 bitrate=1537.7kbits/s speed=1.01x    size=    8124kB time=00:00:43.28 bitrate=1537.6kbits/s speed=1.01x    size=    8220kB time=00:00:43.79 bitrate=1537.6kbits/s speed=1.01x    size=    8324kB time=00:00:44.34 bitrate=1537.6kbits/s speed=1.01x    size=    8411kB time=00:00:44.81 bitrate=1537.6kbits/s speed=1.01x    size=    8507kB time=00:00:45.32 bitrate=1537.6kbits/s speed=1.01x    size=    8603kB time=00:00:45.83 bitrate=1537.6kbits/s speed=1.01x    size=    8699kB time=00:00:46.34 bitrate=1537.5kbits/s speed=1.01x    size=    8803kB time=00:00:46.90 bitrate=1537.5kbits/s speed=1.01x    size=    8890kB time=00:00:47.36 bitrate=1537.5kbits/s speed=1.01x    size=    8986kB time=00:00:47.87 bitrate=1537.5kbits/s speed=1.01x    size=    9082kB time=00:00:48.39 bitrate=1537.5kbits/s speed=1.01x    size=    9178kB time=00:00:48.90 bitrate=1537.5kbits/s speed=1.01x    size=    9273kB time=00:00:49.41 bitrate=1537.4kbits/s speed=1.01x    size=    9378kB time=00:00:49.96 bitrate=1537.4kbits/s speed=1.01x    size=    9465kB time=00:00:50.43 bitrate=1537.4kbits/s speed=1.01x    size=    9569kB time=00:00:50.99 bitrate=1537.4kbits/s speed=1.01x    size=    9657kB time=00:00:51.45 bitrate=1537.4kbits/s speed=1.01x    size=    9761kB time=00:00:52.01 bitrate=1537.4kbits/s speed=1.01x    size=    9848kB time=00:00:52.47 bitrate=1537.4kbits/s speed=1.01x    size=    9970kB time=00:00:53.12 bitrate=1537.3kbits/s speed=1.01x    size=   10074kB time=00:00:53.68 bitrate=1537.3kbits/s speed=1.01x    size=   10170kB time=00:00:54.19 bitrate=1537.3kbits/s speed=1.01x    size=   10266kB time=00:00:54.70 bitrate=1537.3kbits/s speed=1.01x    size=   10371kB time=00:00:55.26 bitrate=1537.3kbits/s speed=1.01x    size=   10458kB time=00:00:55.72 bitrate=1537.3kbits/s speed=1.01x    size=   10562kB time=00:00:56.28 bitrate=1537.3kbits/s speed=1.01x    size=   10649kB time=00:00:56.74 bitrate=1537.3kbits/s speed=1.01x    size=   10754kB time=00:00:57.30 bitrate=1537.2kbits/s speed=1.01x    size=   10858kB time=00:00:57.86 bitrate=1537.2kbits/s speed=1.01x    size=   10954kB time=00:00:58.37 bitrate=1537.2kbits/s speed=1.01x    size=   11050kB time=00:00:58.88 bitrate=1537.2kbits/s speed=1.01x    size=   11154kB time=00:00:59.44 bitrate=1537.2kbits/s speed=1.01x    size=   11241kB time=00:00:59.90 bitrate=1537.2kbits/s speed=1.01x    size=   11346kB time=00:01:00.46 bitrate=1537.2kbits/s speed=1.01x    size=   11433kB time=00:01:00.92 bitrate=1537.2kbits/s speed=1.01x    size=   11537kB time=00:01:01.48 bitrate=1537.2kbits/s speed=1.01x    size=   11624kB time=00:01:01.95 bitrate=1537.2kbits/s speed=1.01x    size=   11729kB time=00:01:02.50 bitrate=1537.1kbits/s speed=1.01x    size=   11816kB time=00:01:02.97 bitrate=1537.1kbits/s speed=1.01x    size=   11920kB time=00:01:03.52 bitrate=1537.1kbits/s speed=1.01x    size=   12008kB time=00:01:03.99 bitrate=1537.1kbits/s speed=1.01x    size=   12112kB time=00:01:04.55 bitrate=1537.1kbits/s speed=1.01x    size=   12199kB time=00:01:05.01 bitrate=1537.1kbits/s speed=1.01x    size=   12304kB time=00:01:05.57 bitrate=1537.1kbits/s speed=1.01x    size=   12391kB time=00:01:06.03 bitrate=1537.1kbits/s speed=1.01x    size=   12495kB time=00:01:06.59 bitrate=1537.1kbits/s speed=1.01x    size=   12600kB time=00:01:07.15 bitrate=1537.1kbits/s speed=1.01x    size=   12704kB time=00:01:07.70 bitrate=1537.1kbits/s speed=1.01x    size=   12791kB time=00:01:08.17 bitrate=1537.0kbits/s speed=1.01x    size=   12896kB time=00:01:08.73 bitrate=1537.0kbits/s speed=1.01x    size=   12983kB time=00:01:09.19 bitrate=1537.0kbits/s speed=1.01x    size=   13087kB time=00:01:09.75 bitrate=1537.0kbits/s speed=1.01x    size=   13192kB time=00:01:10.30 bitrate=1537.0kbits/s speed=1.01x    size=   13296kB time=00:01:10.86 bitrate=1537.0kbits/s speed=1.01x    size=   13383kB time=00:01:11.33 bitrate=1537.0kbits/s speed=1.01x    size=   13505kB time=00:01:11.98 bitrate=1537.0kbits/s speed=1.01x    size=   13592kB time=00:01:12.44 bitrate=1537.0kbits/s speed=1.01x    size=   13697kB time=00:01:13.00 bitrate=1537.0kbits/s speed=1.01x    size=   13801kB time=00:01:13.56 bitrate=1537.0kbits/s speed=1.01x    size=   13906kB time=00:01:14.11 bitrate=1537.0kbits/s speed=1.01x    size=   13993kB time=00:01:14.58 bitrate=1537.0kbits/s speed=1.01x    size=   14106kB time=00:01:15.18 bitrate=1536.9kbits/s speed=1.01x    size=   14211kB time=00:01:15.74 bitrate=1536.9kbits/s speed=1.01x    size=   14298kB time=00:01:16.20 bitrate=1536.9kbits/s speed=1.01x    size=   14393kB time=00:01:16.71 bitrate=1536.9kbits/s speed=1.01x    size=   14498kB time=00:01:17.27 bitrate=1536.9kbits/s speed=1.01x    size=   14585kB time=00:01:17.74 bitrate=1536.9kbits/s speed=1.01x    size=   14698kB time=00:01:18.34 bitrate=1536.9kbits/s speed=1.01x    size=   14803kB time=00:01:18.90 bitrate=1536.9kbits/s speed=1.01x    size=   14890kB time=00:01:19.36 bitrate=1536.9kbits/s speed=1.01x    size=   14986kB time=00:01:19.87 bitrate=1536.9kbits/s speed=1.01x    size=   15090kB time=00:01:20.43 bitrate=1536.9kbits/s speed=1.01x    size=   15177kB time=00:01:20.89 bitrate=1536.9kbits/s speed=1.01x    size=   15290kB time=00:01:21.50 bitrate=1536.9kbits/s speed=1.01x    size=   15386kB time=00:01:22.01 bitrate=1536.9kbits/s speed=1.01x    size=   15482kB time=00:01:22.52 bitrate=1536.9kbits/s speed=1.01x    size=   15578kB time=00:01:23.03 bitrate=1536.9kbits/s speed=1.01x    size=   15682kB time=00:01:23.59 bitrate=1536.9kbits/s speed=1.01x    size=   15778kB time=00:01:24.10 bitrate=1536.8kbits/s speed=1.01x    size=   15874kB time=00:01:24.61 bitrate=1536.8kbits/s speed=1.01x    size=   15961kB time=00:01:25.07 bitrate=1536.8kbits/s speed=1.01x    size=   16074kB time=00:01:25.68 bitrate=1536.8kbits/s speed=1.01x    size=   16170kB time=00:01:26.19 bitrate=1536.8kbits/s speed=1.01x    size=   16274kB time=00:01:26.74 bitrate=1536.8kbits/s speed=1.01x    size=   16379kB time=00:01:27.30 bitrate=1536.8kbits/s speed=1.01x    size=   16492kB time=00:01:27.91 bitrate=1536.8kbits/s speed=1.01x    size=   16588kB time=00:01:28.42 bitrate=1536.8kbits/s speed=1.01x    size=   16683kB time=00:01:28.93 bitrate=1536.8kbits/s speed=1.01x    size=   16779kB time=00:01:29.44 bitrate=1536.8kbits/s speed=1.01x    size=   16875kB time=00:01:29.95 bitrate=1536.8kbits/s speed=1.01x    size=   16971kB time=00:01:30.46 bitrate=1536.8kbits/s speed=1.01x    size=   17067kB time=00:01:30.97 bitrate=1536.8kbits/s speed=1.01x    size=   17162kB time=00:01:31.48 bitrate=1536.8kbits/s speed=   1x    size=   17267kB time=00:01:32.04 bitrate=1536.8kbits/s speed=1.01x    size=   17354kB time=00:01:32.50 bitrate=1536.8kbits/s speed=   1x    size=   17467kB time=00:01:33.11 bitrate=1536.8kbits/s speed=   1x    size=   17563kB time=00:01:33.62 bitrate=1536.8kbits/s speed=   1x    size=   17659kB time=00:01:34.13 bitrate=1536.8kbits/s speed=   1x    size=   17772kB time=00:01:34.73 bitrate=1536.8kbits/s speed=   1x    size=   17885kB time=00:01:35.34 bitrate=1536.7kbits/s speed=   1x    size=   17990kB time=00:01:35.89 bitrate=1536.7kbits/s speed=1.01x    size=   18077kB time=00:01:36.36 bitrate=1536.7kbits/s speed=   1x    size=   18172kB time=00:01:36.87 bitrate=1536.7kbits/s speed=   1x    size=   18268kB time=00:01:37.38 bitrate=1536.7kbits/s speed=   1x    size=   18364kB time=00:01:37.89 bitrate=1536.7kbits/s speed=   1x    size=   18460kB time=00:01:38.40 bitrate=1536.7kbits/s speed=   1x    size=   18556kB time=00:01:38.91 bitrate=1536.7kbits/s speed=   1x    size=   18651kB time=00:01:39.42 bitrate=1536.7kbits/s speed=   1x    size=   18747kB time=00:01:39.93 bitrate=1536.7kbits/s speed=   1x    size=   18843kB time=00:01:40.44 bitrate=1536.7kbits/s speed=   1x    size=   18956kB time=00:01:41.05 bitrate=1536.7kbits/s speed=   1x    size=   19052kB time=00:01:41.56 bitrate=1536.7kbits/s speed=   1x    size=   19148kB time=00:01:42.07 bitrate=1536.7kbits/s speed=   1x    size=   19243kB time=00:01:42.58 bitrate=1536.7kbits/s speed=   1x    size=   19339kB time=00:01:43.09 bitrate=1536.7kbits/s speed=   1x    size=   19444kB time=00:01:43.65 bitrate=1536.7kbits/s speed=   1x    size=   19531kB time=00:01:44.11 bitrate=1536.7kbits/s speed=   1x    size=   19627kB time=00:01:44.62 bitrate=1536.7kbits/s speed=   1x    size=   19731kB time=00:01:45.18 bitrate=1536.7kbits/s speed=   1x    size=   19818kB time=00:01:45.65 bitrate=1536.7kbits/s speed=   1x    size=   19914kB time=00:01:46.16 bitrate=1536.7kbits/s speed=   1x    size=   20010kB time=00:01:46.67 bitrate=1536.7kbits/s speed=   1x    size=   20106kB time=00:01:47.18 bitrate=1536.7kbits/s speed=   1x    size=   20219kB time=00:01:47.78 bitrate=1536.7kbits/s speed=   1x    size=   20332kB time=00:01:48.39 bitrate=1536.7kbits/s speed=   1x    size=   20428kB time=00:01:48.90 bitrate=1536.7kbits/s speed=   1x    size=   20523kB time=00:01:49.41 bitrate=1536.7kbits/s speed=   1x    size=   20619kB time=00:01:49.92 bitrate=1536.6kbits/s speed=   1x    size=   20715kB time=00:01:50.43 bitrate=1536.6kbits/s speed=   1x    size=   20820kB time=00:01:50.99 bitrate=1536.6kbits/s speed=   1x    size=   20907kB time=00:01:51.45 bitrate=1536.6kbits/s speed=   1x    size=   21002kB time=00:01:51.96 bitrate=1536.6kbits/s speed=   1x    size=   21098kB time=00:01:52.47 bitrate=1536.6kbits/s speed=   1x    size=   21194kB time=00:01:52.98 bitrate=1536.6kbits/s speed=   1x    size=   21290kB time=00:01:53.49 bitrate=1536.6kbits/s speed=   1x    size=   21394kB time=00:01:54.05 bitrate=1536.6kbits/s speed=   1x    size=   21481kB time=00:01:54.52 bitrate=1536.6kbits/s speed=   1x    size=   21594kB time=00:01:55.12 bitrate=1536.6kbits/s speed=   1x    size=   21690kB time=00:01:55.63 bitrate=1536.6kbits/s speed=   1x    size=   21786kB time=00:01:56.14 bitrate=1536.6kbits/s speed=   1x    size=   21891kB time=00:01:56.70 bitrate=1536.6kbits/s speed=   1x    size=   21978kB time=00:01:57.16 bitrate=1536.6kbits/s speed=   1x    size=   22082kB time=00:01:57.72 bitrate=1536.6kbits/s speed=   1x    size=   22178kB time=00:01:58.23 bitrate=1536.6kbits/s speed=   1x    size=   22265kB time=00:01:58.70 bitrate=1536.6kbits/s speed=   1x    size=   22378kB time=00:01:59.30 bitrate=1536.6kbits/s speed=   1x    size=   22491kB time=00:01:59.90 bitrate=1536.6kbits/s speed=   1x    size=   22587kB time=00:02:00.41 bitrate=1536.6kbits/s speed=   1x    size=   22683kB time=00:02:00.92 bitrate=1536.6kbits/s speed=   1x    size=   22779kB time=00:02:01.44 bitrate=1536.6kbits/s speed=   1x    size=   22874kB time=00:02:01.95 bitrate=1536.6kbits/s speed=   1x    size=   22979kB time=00:02:02.50 bitrate=1536.6kbits/s speed=   1x    size=   23066kB time=00:02:02.97 bitrate=1536.6kbits/s speed=   1x    size=   23162kB time=00:02:03.48 bitrate=1536.6kbits/s speed=   1x    size=   23258kB time=00:02:03.99 bitrate=1536.6kbits/s speed=   1x    size=   23362kB time=00:02:04.55 bitrate=1536.6kbits/s speed=   1x    size=   23449kB time=00:02:05.01 bitrate=1536.6kbits/s speed=   1x    size=   23554kB time=00:02:05.57 bitrate=1536.6kbits/s speed=   1x    size=   23641kB time=00:02:06.03 bitrate=1536.6kbits/s speed=   1x    size=   23754kB time=00:02:06.64 bitrate=1536.6kbits/s speed=   1x    size=   23850kB time=00:02:07.15 bitrate=1536.6kbits/s speed=   1x    size=   23954kB time=00:02:07.70 bitrate=1536.6kbits/s speed=   1x    size=   24050kB time=00:02:08.22 bitrate=1536.6kbits/s speed=   1x    size=   24146kB time=00:02:08.73 bitrate=1536.6kbits/s speed=   1x    size=   24242kB time=00:02:09.24 bitrate=1536.6kbits/s speed=   1x    size=   24337kB time=00:02:09.75 bitrate=1536.5kbits/s speed=   1x    size=   24424kB time=00:02:10.21 bitrate=1536.5kbits/s speed=   1x    size=   24529kB time=00:02:10.77 bitrate=1536.5kbits/s speed=   1x    size=   24616kB time=00:02:11.23 bitrate=1536.5kbits/s speed=   1x    size=   24720kB time=00:02:11.79 bitrate=1536.5kbits/s speed=   1x    size=   24808kB time=00:02:12.26 bitrate=1536.5kbits/s speed=   1x    size=   24912kB time=00:02:12.81 bitrate=1536.5kbits/s speed=   1x    size=   24999kB time=00:02:13.28 bitrate=1536.5kbits/s speed=   1x    size=   25104kB time=00:02:13.83 bitrate=1536.5kbits/s speed=   1x    size=   25208kB time=00:02:14.39 bitrate=1536.5kbits/s speed=   1x    size=   25330kB time=00:02:15.04 bitrate=1536.5kbits/s speed=   1x    size=   25434kB time=00:02:15.60 bitrate=1536.5kbits/s speed=   1x    size=   25530kB time=00:02:16.11 bitrate=1536.5kbits/s speed=   1x    size=   25626kB time=00:02:16.62 bitrate=1536.5kbits/s speed=   1x    size=   25722kB time=00:02:17.13 bitrate=1536.5kbits/s speed=   1x    size=   25818kB time=00:02:17.64 bitrate=1536.5kbits/s speed=   1x    size=   25922kB time=00:02:18.20 bitrate=1536.5kbits/s speed=   1x    size=   26009kB time=00:02:18.66 bitrate=1536.5kbits/s speed=   1x    size=   26114kB time=00:02:19.22 bitrate=1536.5kbits/s speed=   1x    size=   26209kB time=00:02:19.73 bitrate=1536.5kbits/s speed=   1x    size=   26305kB time=00:02:20.24 bitrate=1536.5kbits/s speed=   1x    size=   26392kB time=00:02:20.71 bitrate=1536.5kbits/s speed=   1x    size=   26497kB time=00:02:21.26 bitrate=1536.5kbits/s speed=   1x    size=   26584kB time=00:02:21.73 bitrate=1536.5kbits/s speed=   1x    size=   26688kB time=00:02:22.29 bitrate=1536.5kbits/s speed=   1x    size=   26775kB time=00:02:22.75 bitrate=1536.5kbits/s speed=   1x    size=   26889kB time=00:02:23.35 bitrate=1536.5kbits/s speed=   1x    size=   26967kB time=00:02:23.77 bitrate=1536.5kbits/s speed=   1x    size=   27072kB time=00:02:24.33 bitrate=1536.5kbits/s speed=   1x    size=   27159kB time=00:02:24.79 bitrate=1536.5kbits/s speed=   1x    size=   27263kB time=00:02:25.35 bitrate=1536.5kbits/s speed=   1x    size=   27359kB time=00:02:25.86 bitrate=1536.5kbits/s speed=   1x    size=   27455kB time=00:02:26.37 bitrate=1536.5kbits/s speed=   1x    size=   27550kB time=00:02:26.88 bitrate=1536.5kbits/s speed=   1x    size=   27646kB time=00:02:27.39 bitrate=1536.5kbits/s speed=   1x    size=   27742kB time=00:02:27.91 bitrate=1536.5kbits/s speed=   1x    size=   27838kB time=00:02:28.42 bitrate=1536.5kbits/s speed=   1x    size=   27934kB time=00:02:28.93 bitrate=1536.5kbits/s speed=   1x    size=   28029kB time=00:02:29.44 bitrate=1536.5kbits/s speed=   1x    size=   28134kB time=00:02:30.00 bitrate=1536.5kbits/s speed=   1x    size=   28221kB time=00:02:30.46 bitrate=1536.5kbits/s speed=   1x    size=   28317kB time=00:02:30.97 bitrate=1536.5kbits/s speed=   1x    size=   28412kB time=00:02:31.48 bitrate=1536.5kbits/s speed=   1x    size=   28508kB time=00:02:31.99 bitrate=1536.5kbits/s speed=   1x    size=   28604kB time=00:02:32.50 bitrate=1536.5kbits/s speed=   1x    size=   28700kB time=00:02:33.01 bitrate=1536.5kbits/s speed=   1x    size=   28804kB time=00:02:33.57 bitrate=1536.5kbits/s speed=   1x    size=   28891kB time=00:02:34.04 bitrate=1536.5kbits/s speed=   1x    size=   28987kB time=00:02:34.55 bitrate=1536.5kbits/s speed=   1x    size=   29092kB time=00:02:35.10 bitrate=1536.5kbits/s speed=   1x    size=   29179kB time=00:02:35.57 bitrate=1536.5kbits/s speed=   1x    size=   29292kB time=00:02:36.17 bitrate=1536.5kbits/s speed=   1x    size=   29388kB time=00:02:36.68 bitrate=1536.5kbits/s speed=   1x    size=   29483kB time=00:02:37.19 bitrate=1536.5kbits/s speed=   1x    size=   29579kB time=00:02:37.70 bitrate=1536.5kbits/s speed=   1x    size=   29675kB time=00:02:38.22 bitrate=1536.5kbits/s speed=   1x    size=   29771kB time=00:02:38.73 bitrate=1536.4kbits/s speed=   1x    size=   29867kB time=00:02:39.24 bitrate=1536.4kbits/s speed=   1x    size=   29962kB time=00:02:39.75 bitrate=1536.4kbits/s speed=   1x    size=   30058kB time=00:02:40.26 bitrate=1536.4kbits/s speed=   1x    size=   30163kB time=00:02:40.82 bitrate=1536.4kbits/s speed=   1x    size=   30250kB time=00:02:41.28 bitrate=1536.4kbits/s speed=   1x    size=   30346kB time=00:02:41.79 bitrate=1536.4kbits/s speed=   1x    size=   30450kB time=00:02:42.35 bitrate=1536.4kbits/s speed=   1x    size=   30537kB time=00:02:42.81 bitrate=1536.4kbits/s speed=   1x    size=   30650kB time=00:02:43.42 bitrate=1536.4kbits/s speed=   1x    size=   30746kB time=00:02:43.93 bitrate=1536.4kbits/s speed=   1x    size=   30842kB time=00:02:44.44 bitrate=1536.4kbits/s speed=   1x    size=   30955kB time=00:02:45.04 bitrate=1536.4kbits/s speed=   1x    size=   31051kB time=00:02:45.55 bitrate=1536.4kbits/s speed=   1x    size=   31147kB time=00:02:46.06 bitrate=1536.4kbits/s speed=   1x    size=   31242kB time=00:02:46.57 bitrate=1536.4kbits/s speed=   1x    size=   31338kB time=00:02:47.09 bitrate=1536.4kbits/s speed=   1x    size=   31451kB time=00:02:47.69 bitrate=1536.4kbits/s speed=   1x    size=   31547kB time=00:02:48.20 bitrate=1536.4kbits/s speed=   1x    size=   31643kB time=00:02:48.71 bitrate=1536.4kbits/s speed=   1x    size=   31739kB time=00:02:49.22 bitrate=1536.4kbits/s speed=   1x    size=   31834kB time=00:02:49.73 bitrate=1536.4kbits/s speed=   1x    size=   31930kB time=00:02:50.24 bitrate=1536.4kbits/s speed=   1x    size=   32035kB time=00:02:50.80 bitrate=1536.4kbits/s speed=   1x    size=   32122kB time=00:02:51.27 bitrate=1536.4kbits/s speed=   1x    size=   32218kB time=00:02:51.78 bitrate=1536.4kbits/s speed=   1x    size=   32313kB time=00:02:52.29 bitrate=1536.4kbits/s speed=   1x    size=   32418kB time=00:02:52.84 bitrate=1536.4kbits/s speed=   1x    size=   32505kB time=00:02:53.31 bitrate=1536.4kbits/s speed=   1x    size=   32609kB time=00:02:53.87 bitrate=1536.4kbits/s speed=   1x    size=   32697kB time=00:02:54.33 bitrate=1536.4kbits/s speed=   1x    size=   32810kB time=00:02:54.93 bitrate=1536.4kbits/s speed=   1x    size=   32906kB time=00:02:55.44 bitrate=1536.4kbits/s speed=   1x    size=   33010kB time=00:02:56.00 bitrate=1536.4kbits/s speed=   1x    size=   33097kB time=00:02:56.47 bitrate=1536.4kbits/s speed=   1x    size=   33202kB time=00:02:57.02 bitrate=1536.4kbits/s speed=   1x    size=   33297kB time=00:02:57.53 bitrate=1536.4kbits/s speed=   1x    size=   33393kB time=00:02:58.05 bitrate=1536.4kbits/s speed=   1x    size=   33480kB time=00:02:58.51 bitrate=1536.4kbits/s speed=   1x    size=   33585kB time=00:02:59.07 bitrate=1536.4kbits/s speed=   1x    size=   33672kB time=00:02:59.53 bitrate=1536.4kbits/s speed=   1x    size=   33776kB time=00:03:00.09 bitrate=1536.4kbits/s speed=   1x    size=   33863kB time=00:03:00.55 bitrate=1536.4kbits/s speed=   1x    size=   33968kB time=00:03:01.11 bitrate=1536.4kbits/s speed=   1x    size=   34064kB time=00:03:01.62 bitrate=1536.4kbits/s speed=   1x    size=   34159kB time=00:03:02.13 bitrate=1536.4kbits/s speed=   1x    size=   34264kB time=00:03:02.69 bitrate=1536.4kbits/s speed=   1x    size=   34377kB time=00:03:03.29 bitrate=1536.4kbits/s speed=   1x    size=   34455kB time=00:03:03.71 bitrate=1536.4kbits/s speed=   1x    size=   34560kB time=00:03:04.27 bitrate=1536.4kbits/s speed=   1x    size=   34647kB time=00:03:04.73 bitrate=1536.4kbits/s speed=   1x    size=   34752kB time=00:03:05.29 bitrate=1536.4kbits/s speed=   1x    size=   34847kB time=00:03:05.80 bitrate=1536.4kbits/s speed=   1x    size=   34943kB time=00:03:06.31 bitrate=1536.4kbits/s speed=   1x    size=   35039kB time=00:03:06.82 bitrate=1536.4kbits/s speed=   1x    size=   35135kB time=00:03:07.33 bitrate=1536.4kbits/s speed=   1x    size=   35230kB time=00:03:07.84 bitrate=1536.4kbits/s speed=   1x    size=   35326kB time=00:03:08.35 bitrate=1536.4kbits/s speed=   1x    size=   35422kB time=00:03:08.87 bitrate=1536.4kbits/s speed=   1x    size=   35518kB time=00:03:09.38 bitrate=1536.4kbits/s speed=   1x    size=   35614kB time=00:03:09.89 bitrate=1536.4kbits/s speed=   1x    size=   35709kB time=00:03:10.40 bitrate=1536.4kbits/s speed=   1x    size=   35823kB time=00:03:11.00 bitrate=1536.4kbits/s speed=   1x    size=   35918kB time=00:03:11.51 bitrate=1536.4kbits/s speed=   1x    size=   36014kB time=00:03:12.02 bitrate=1536.4kbits/s speed=   1x    size=   36110kB time=00:03:12.53 bitrate=1536.4kbits/s speed=   1x    size=   36206kB time=00:03:13.05 bitrate=1536.4kbits/s speed=   1x    size=   36301kB time=00:03:13.56 bitrate=1536.4kbits/s speed=   1x    size=   36415kB time=00:03:14.16 bitrate=1536.4kbits/s speed=   1x    size=   36510kB time=00:03:14.67 bitrate=1536.4kbits/s speed=   1x    size=   36606kB time=00:03:15.18 bitrate=1536.4kbits/s speed=   1x    size=   36719kB time=00:03:15.79 bitrate=1536.4kbits/s speed=   1x    size=   36806kB time=00:03:16.25 bitrate=1536.4kbits/s speed=   1x    size=   36911kB time=00:03:16.81 bitrate=1536.4kbits/s speed=   1x    size=   37015kB time=00:03:17.36 bitrate=1536.4kbits/s speed=   1x    size=   37137kB time=00:03:18.01 bitrate=1536.4kbits/s speed=   1x    size=   37224kB time=00:03:18.48 bitrate=1536.4kbits/s speed=   1x    size=   37329kB time=00:03:19.04 bitrate=1536.4kbits/s speed=   1x    size=   37416kB time=00:03:19.50 bitrate=1536.4kbits/s speed=   1x    size=   37520kB time=00:03:20.06 bitrate=1536.4kbits/s speed=   1x    size=   37625kB time=00:03:20.62 bitrate=1536.4kbits/s speed=   1x    size=   37738kB time=00:03:21.22 bitrate=1536.4kbits/s speed=   1x    size=   37834kB time=00:03:21.73 bitrate=1536.4kbits/s speed=   1x    size=   37930kB time=00:03:22.24 bitrate=1536.4kbits/s speed=   1x    size=   38034kB time=00:03:22.80 bitrate=1536.4kbits/s speed=   1x    size=   38130kB time=00:03:23.31 bitrate=1536.4kbits/s speed=   1x    size=   38217kB time=00:03:23.77 bitrate=1536.4kbits/s speed=   1x    size=   38330kB time=00:03:24.38 bitrate=1536.3kbits/s speed=   1x    size=   38426kB time=00:03:24.89 bitrate=1536.3kbits/s speed=   1x    size=   38522kB time=00:03:25.40 bitrate=1536.3kbits/s speed=   1x    size=   38635kB time=00:03:26.00 bitrate=1536.3kbits/s speed=   1x    size=   38731kB time=00:03:26.51 bitrate=1536.3kbits/s speed=   1x    size=   38827kB time=00:03:27.02 bitrate=1536.3kbits/s speed=   1x    size=   38922kB time=00:03:27.53 bitrate=1536.3kbits/s speed=   1x    size=   39018kB time=00:03:28.05 bitrate=1536.3kbits/s speed=   1x    size=   39114kB time=00:03:28.56 bitrate=1536.3kbits/s speed=   1x    size=   39210kB time=00:03:29.07 bitrate=1536.3kbits/s speed=   1x    size=   39314kB time=00:03:29.62 bitrate=1536.3kbits/s speed=   1x    size=   39419kB time=00:03:30.18 bitrate=1536.3kbits/s speed=   1x    size=   39532kB time=00:03:30.79 bitrate=1536.3kbits/s speed=   1x    size=   39628kB time=00:03:31.30 bitrate=1536.3kbits/s speed=   1x    size=   39723kB time=00:03:31.81 bitrate=1536.3kbits/s speed=   1x    size=   39819kB time=00:03:32.32 bitrate=1536.3kbits/s speed=   1x    size=   39915kB time=00:03:32.83 bitrate=1536.3kbits/s speed=   1x    size=   40020kB time=00:03:33.39 bitrate=1536.3kbits/s speed=   1x    size=   40107kB time=00:03:33.85 bitrate=1536.3kbits/s speed=   1x    size=   40202kB time=00:03:34.36 bitrate=1536.3kbits/s speed=   1x    size=   40298kB time=00:03:34.87 bitrate=1536.3kbits/s speed=   1x    size=   40394kB time=00:03:35.38 bitrate=1536.3kbits/s speed=   1x    size=   40490kB time=00:03:35.89 bitrate=1536.3kbits/s speed=   1x    size=   40586kB time=00:03:36.40 bitrate=1536.3kbits/s speed=   1x    size=   40690kB time=00:03:36.96 bitrate=1536.3kbits/s speed=   1x    size=   40786kB time=00:03:37.47 bitrate=1536.3kbits/s speed=   1x    size=   40882kB time=00:03:37.98 bitrate=1536.3kbits/s speed=   1x    size=   40977kB time=00:03:38.49 bitrate=1536.3kbits/s speed=   1x    size=   41073kB time=00:03:39.01 bitrate=1536.3kbits/s speed=   1x    size=   41160kB time=00:03:39.47 bitrate=1536.3kbits/s speed=   1x    size=   41273kB time=00:03:40.07 bitrate=1536.3kbits/s speed=   1x    size=   41352kB time=00:03:40.49 bitrate=1536.3kbits/s speed=   1x    size=   41456kB time=00:03:41.05 bitrate=1536.3kbits/s speed=   1x    size=   41543kB time=00:03:41.51 bitrate=1536.3kbits/s speed=   1x    size=   41648kB time=00:03:42.07 bitrate=1536.3kbits/s speed=   1x    size=   41752kB time=00:03:42.63 bitrate=1536.3kbits/s speed=   1x    size=   41857kB time=00:03:43.18 bitrate=1536.3kbits/s speed=   1x    size=   41944kB time=00:03:43.65 bitrate=1536.3kbits/s speed=   1x    size=   42048kB time=00:03:44.21 bitrate=1536.3kbits/s speed=   1x    size=   42135kB time=00:03:44.67 bitrate=1536.3kbits/s speed=   1x    size=   42257kB time=00:03:45.32 bitrate=1536.3kbits/s speed=   1x    size=   42353kB time=00:03:45.83 bitrate=1536.3kbits/s speed=   1x    size=   42449kB time=00:03:46.34 bitrate=1536.3kbits/s speed=   1x    size=   42536kB time=00:03:46.81 bitrate=1536.3kbits/s speed=   1x    size=   42640kB time=00:03:47.36 bitrate=1536.3kbits/s speed=   1x    size=   42728kB time=00:03:47.83 bitrate=1536.3kbits/s speed=   1x    size=   42832kB time=00:03:48.39 bitrate=1536.3kbits/s speed=   1x    size=   42919kB time=00:03:48.85 bitrate=1536.3kbits/s speed=   1x    size=   43024kB time=00:03:49.41 bitrate=1536.3kbits/s speed=   1x    size=   43119kB time=00:03:49.92 bitrate=1536.3kbits/s speed=   1x    size=   43215kB time=00:03:50.43 bitrate=1536.3kbits/s speed=   1x    size=   43311kB time=00:03:50.94 bitrate=1536.3kbits/s speed=   1x    size=   43407kB time=00:03:51.45 bitrate=1536.3kbits/s speed=   1x    size=   43503kB time=00:03:51.96 bitrate=1536.3kbits/s speed=   1x    size=   43598kB time=00:03:52.47 bitrate=1536.3kbits/s speed=   1x    size=   43694kB time=00:03:52.98 bitrate=1536.3kbits/s speed=   1x    size=   43799kB time=00:03:53.54 bitrate=1536.3kbits/s speed=   1x    size=   43886kB time=00:03:54.01 bitrate=1536.3kbits/s speed=   1x    size=   43981kB time=00:03:54.52 bitrate=1536.3kbits/s speed=   1x    size=   44086kB time=00:03:55.07 bitrate=1536.3kbits/s speed=   1x    size=   44173kB time=00:03:55.54 bitrate=1536.3kbits/s speed=   1x    size=   44277kB time=00:03:56.10 bitrate=1536.3kbits/s speed=   1x    size=   44365kB time=00:03:56.56 bitrate=1536.3kbits/s speed=   1x    size=   44399kB time=00:03:56.79 bitrate=1536.0kbits/s speed=   1x    
video:0kB audio:44399kB subtitle:0kB other streams:0kB global headers:0kB muxing overhead: 0.000000%
